<mxfile type="github" version="12.2.3" host="www.draw.io" modified="2019-11-11T05:38:52.661Z" agent="Mozilla/5.0 (Windows NT 10.0; Win64; x64) AppleWebKit/537.36 (KHTML, like Gecko) Chrome/64.0.3282.140 Safari/537.36 Edge/18.17763" etag="KVWjWoJwCKLSlUYImxCP" pages="1">
  <diagram id="5JmlMbmeH8m1iZXJTMro" name="Page-1">
    <mxGraphModel page="1" grid="0" dx="799" dy="415" gridSize="10" guides="1" tooltips="1" connect="1" arrows="1" fold="1" pageScale="1" pageWidth="827" pageHeight="1169" math="0" shadow="0" background="#FFFFFF">
      <root>
        <mxCell id="0"/>
        <mxCell id="1" parent="0"/>
        <mxCell id="yG6w-wtFE7sVYso2WNsZ-2" value="&lt;font style=&quot;font-size: 24px&quot;&gt;在线教育平台&lt;/font&gt;" parent="1" style="rounded=0;whiteSpace=wrap;html=1;direction=south;" vertex="1">
          <mxGeometry width="30" as="geometry" x="50" y="100" height="220"/>
        </mxCell>
        <mxCell id="yG6w-wtFE7sVYso2WNsZ-3" value="&lt;font style=&quot;font-size: 18px&quot;&gt;课程开发与管理&lt;/font&gt;" parent="1" style="rounded=0;whiteSpace=wrap;html=1;" vertex="1">
          <mxGeometry width="160" as="geometry" x="210" y="100" height="30"/>
        </mxCell>
        <mxCell id="yG6w-wtFE7sVYso2WNsZ-4" value="&lt;font style=&quot;font-size: 18px&quot;&gt;教学与支持服务&lt;/font&gt;" parent="1" style="rounded=0;whiteSpace=wrap;html=1;" vertex="1">
          <mxGeometry width="160" as="geometry" x="210" y="195" height="30"/>
        </mxCell>
        <mxCell id="yG6w-wtFE7sVYso2WNsZ-5" value="&lt;font style=&quot;font-size: 18px&quot;&gt;学习与教学管理&lt;/font&gt;" parent="1" style="rounded=0;whiteSpace=wrap;html=1;" vertex="1">
          <mxGeometry width="160" as="geometry" x="210" y="290" height="30"/>
        </mxCell>
        <mxCell id="yG6w-wtFE7sVYso2WNsZ-6" value="&lt;font style=&quot;font-size: 18px&quot;&gt;网络上的课程开发、课程资源管理&lt;/font&gt;" parent="1" style="rounded=0;whiteSpace=wrap;html=1;" vertex="1">
          <mxGeometry width="290" as="geometry" x="470" y="100" height="30"/>
        </mxCell>
        <mxCell id="yG6w-wtFE7sVYso2WNsZ-7" value="&lt;font style=&quot;font-size: 18px&quot;&gt;网络上的教学实施、学习支持服务&lt;/font&gt;" parent="1" style="rounded=0;whiteSpace=wrap;html=1;" vertex="1">
          <mxGeometry width="290" as="geometry" x="470" y="195" height="30"/>
        </mxCell>
        <mxCell id="yG6w-wtFE7sVYso2WNsZ-8" value="&lt;font style=&quot;font-size: 18px&quot;&gt;网络上的学习管理、教学管理&lt;/font&gt;" parent="1" style="rounded=0;whiteSpace=wrap;html=1;" vertex="1">
          <mxGeometry width="290" as="geometry" x="470" y="290" height="30"/>
        </mxCell>
        <mxCell id="yG6w-wtFE7sVYso2WNsZ-9" value="" parent="1" style="endArrow=none;html=1;entryX=0;entryY=0.5;entryDx=0;entryDy=0;" edge="1" target="yG6w-wtFE7sVYso2WNsZ-3">
          <mxGeometry width="50" as="geometry" height="50" relative="1">
            <mxPoint as="sourcePoint" x="120" y="115"/>
            <mxPoint as="targetPoint" x="210" y="120"/>
          </mxGeometry>
        </mxCell>
        <mxCell id="yG6w-wtFE7sVYso2WNsZ-10" value="" parent="1" style="endArrow=none;html=1;" edge="1">
          <mxGeometry width="50" as="geometry" height="50" relative="1">
            <mxPoint as="sourcePoint" x="120" y="310"/>
            <mxPoint as="targetPoint" x="120" y="115"/>
          </mxGeometry>
        </mxCell>
        <mxCell id="yG6w-wtFE7sVYso2WNsZ-11" value="" parent="1" style="endArrow=none;html=1;" edge="1">
          <mxGeometry width="50" as="geometry" height="50" relative="1">
            <mxPoint as="sourcePoint" x="120" y="310"/>
            <mxPoint as="targetPoint" x="210" y="310.5"/>
          </mxGeometry>
        </mxCell>
        <mxCell id="yG6w-wtFE7sVYso2WNsZ-12" value="" parent="1" style="endArrow=none;html=1;exitX=0.5;exitY=0;exitDx=0;exitDy=0;" edge="1" source="yG6w-wtFE7sVYso2WNsZ-2">
          <mxGeometry width="50" as="geometry" height="50" relative="1">
            <mxPoint as="sourcePoint" x="50" y="390"/>
            <mxPoint as="targetPoint" x="120" y="210"/>
          </mxGeometry>
        </mxCell>
        <mxCell id="yG6w-wtFE7sVYso2WNsZ-13" value="" parent="1" style="endArrow=none;html=1;entryX=0;entryY=0.5;entryDx=0;entryDy=0;" edge="1" target="yG6w-wtFE7sVYso2WNsZ-4">
          <mxGeometry width="50" as="geometry" height="50" relative="1">
            <mxPoint as="sourcePoint" x="120" y="210"/>
            <mxPoint as="targetPoint" x="100" y="340"/>
          </mxGeometry>
        </mxCell>
        <mxCell id="yG6w-wtFE7sVYso2WNsZ-14" value="" parent="1" style="endArrow=none;html=1;entryX=0;entryY=0.5;entryDx=0;entryDy=0;exitX=1;exitY=0.5;exitDx=0;exitDy=0;" edge="1" target="yG6w-wtFE7sVYso2WNsZ-6" source="yG6w-wtFE7sVYso2WNsZ-3">
          <mxGeometry width="50" as="geometry" height="50" relative="1">
            <mxPoint as="sourcePoint" x="50" y="390"/>
            <mxPoint as="targetPoint" x="100" y="340"/>
          </mxGeometry>
        </mxCell>
        <mxCell id="yG6w-wtFE7sVYso2WNsZ-15" value="" parent="1" style="endArrow=none;html=1;entryX=0;entryY=0.5;entryDx=0;entryDy=0;exitX=1;exitY=0.5;exitDx=0;exitDy=0;" edge="1">
          <mxGeometry width="50" as="geometry" height="50" relative="1">
            <mxPoint as="sourcePoint" x="370" y="209.5"/>
            <mxPoint as="targetPoint" x="470" y="209.5"/>
          </mxGeometry>
        </mxCell>
        <mxCell id="yG6w-wtFE7sVYso2WNsZ-16" value="" parent="1" style="endArrow=none;html=1;entryX=0;entryY=0.5;entryDx=0;entryDy=0;exitX=1;exitY=0.5;exitDx=0;exitDy=0;" edge="1">
          <mxGeometry width="50" as="geometry" height="50" relative="1">
            <mxPoint as="sourcePoint" x="370" y="304.5"/>
            <mxPoint as="targetPoint" x="470" y="304.5"/>
          </mxGeometry>
        </mxCell>
      </root>
    </mxGraphModel>
  </diagram>
</mxfile>
